<svg xmlns="http://www.w3.org/2000/svg" version="1.1" xmlns:xlink="http://www.w3.org/1999/xlink" xmlns:svgjs="http://svgjs.dev/svgjs" width="1000" height="1000" viewBox="0 0 1000 1000"><rect width="1000" height="1000" fill="#ffffff"></rect><g transform="matrix(0.7,0,0,0.7,150,150)"><svg viewBox="0 0 280 280" data-background-color="#ffffff" preserveAspectRatio="xMidYMid meet" height="1000" width="1000" xmlns="http://www.w3.org/2000/svg" xmlns:xlink="http://www.w3.org/1999/xlink"><g id="tight-bounds" transform="matrix(1,0,0,1,0,0)"><svg viewBox="0 0 280 280" height="280" width="280"><g><svg viewBox="0 0 280 280" height="280" width="280"><g><svg viewBox="0 0 280 280" height="280" width="280"><g id="textblocktransform"><svg viewBox="0 0 280 280" height="280" width="280" id="textblock"><g><svg viewBox="0 0 280 280" height="280" width="280"><g transform="matrix(1,0,0,1,57.50420886156945,57.50420886156945)"><svg viewBox="0 0 164.9915822768611 164.9915822768611" height="164.9915822768611" width="164.9915822768611"><g><circle r="82" cx="82.49579113843055" cy="82.49579113843055" fill="#6d57e0" data-fill-palette-color="accent"></circle><svg xmlns="http://www.w3.org/2000/svg" xmlns:xlink="http://www.w3.org/1999/xlink" version="1.1" x="24.74873734152917" y="24.748737341529164" viewBox="12.982999801635742 1 75.68599700927734 97.81300354003906" enable-background="new 0 0 100 100" xml:space="preserve" height="115.49410759380275" width="115.49410759380275" class="icon-o-0" data-fill-palette-color="quaternary" id="o-0"><g fill="#ffffff" data-fill-palette-color="quaternary"><polygon fill-rule="evenodd" clip-rule="evenodd" points="12.983,10.59 30.001,98.813 24.129,39.764 53.15,37.872 53.096,27.989    64.549,1 53.622,18.977  " fill="#ffffff" data-fill-palette-color="quaternary"></polygon><polygon fill-rule="evenodd" clip-rule="evenodd" points="59.389,54.548 64.549,1.007 55.809,40.723 36.197,41.768 37.767,62.23    30.001,98.813 42.058,58.914  " fill="#ffffff" data-fill-palette-color="quaternary"></polygon><polygon fill-rule="evenodd" clip-rule="evenodd" points="62.8,67.182 63.349,56.729 47.37,60.484 47.338,72.281 30.001,98.813    51.681,71.197  " fill="#ffffff" data-fill-palette-color="quaternary"></polygon><polygon fill-rule="evenodd" clip-rule="evenodd" points="65.711,62.394 80.552,57.663 82.061,45.131 66.162,47.226  " fill="#ffffff" data-fill-palette-color="quaternary"></polygon><polygon fill-rule="evenodd" clip-rule="evenodd" points="72.07,44.502 83.058,43.085 84.639,32.807 76.56,32.434 64.549,1    72.979,31.967  " fill="#ffffff" data-fill-palette-color="quaternary"></polygon><polygon fill-rule="evenodd" clip-rule="evenodd" points="87.413,31.294 88.669,21.788 79.125,19.094 64.549,1 79.032,23.437    78.61,30.437  " fill="#ffffff" data-fill-palette-color="quaternary"></polygon></g></svg></g></svg></g><g><path d="M11.634 83.81l1.294-3.478 22.765 19.652-1.385 3.721-30.084 0.015 1.308-3.516 25.302 0.085z" fill="#6d57e0" data-fill-palette-color="primary"></path><path d="M62.279 59.626l-8.082-3.115-7.693 8.711 4.116 7.605-2.431 2.752-14.192-26.514 2.621-2.969 28.092 10.778zM44.906 62.191l6.086-6.891-12.351-4.775z" fill="#6d57e0" data-fill-palette-color="primary"></path><path d="M82.567 40.515l10.096-5.817 1.594 2.767-13.191 7.601-13.91-24.14 3.095-1.783z" fill="#6d57e0" data-fill-palette-color="primary"></path><path d="M126.083 0.658l3.501-0.658 5.146 27.382-3.501 0.658-2.288-12.175-13.799 2.593 2.288 12.175-3.511 0.66-5.146-27.382 3.511-0.66 2.261 12.029 13.798-2.594z" fill="#6d57e0" data-fill-palette-color="primary"></path><path d="M175.101 32.809l-1.261-8.569-11.369-2.416-4.598 7.324-3.591-0.763 16.108-25.397 3.874 0.824 4.429 29.76zM164.325 18.942l8.993 1.911-1.915-13.102z" fill="#6d57e0" data-fill-palette-color="primary"></path><path d="M201.718 41.077l10.03 5.93-1.625 2.749-13.105-7.748 14.179-23.983 3.075 1.818z" fill="#6d57e0" data-fill-palette-color="primary"></path><path d="M230.152 64.526l7.715 8.733-2.394 2.114-10.079-11.409 20.88-18.447 2.365 2.678z" fill="#6d57e0" data-fill-palette-color="primary"></path><path d="M252.001 110.386l6.469-5.759-4.223-10.828-8.646 0.179-1.334-3.421 30.071-0.481 1.438 3.69-22.441 20.041zM257.673 93.766l3.341 8.566 9.899-8.795z" fill="#6d57e0" data-fill-palette-color="primary"></path><path d="M45.114 191.258l1.313 3.515-30.433 0.055-1.407-3.766 23.003-19.947 1.33 3.561-19.407 16.692z" fill="#6d57e0" data-fill-palette-color="primary"></path><path d="M47.144 241.351l4.13-7.735-7.789-8.8-8.146 3.198-2.467-2.787 28.386-10.973 2.665 3.01-14.312 26.873zM46.725 223.597l6.159 6.959 6.331-11.809z" fill="#6d57e0" data-fill-palette-color="primary"></path><path d="M75.616 258.918l10.219 5.883-1.613 2.803-13.341-7.68 14.064-24.431 3.122 1.797z" fill="#6d57e0" data-fill-palette-color="primary"></path><path d="M132.785 251.628l3.55 0.667-5.206 27.705-3.55-0.667 2.316-12.322-13.965-2.624-2.315 12.322-3.541-0.665 5.206-27.705 3.541 0.665-2.288 12.175 13.965 2.624z" fill="#6d57e0" data-fill-palette-color="primary"></path><path d="M179.491 274.409l-4.698-7.404-11.495 2.446-1.228 8.665-3.64 0.774 4.428-30.109 3.932-0.836 16.341 25.689zM163.832 266.031l9.091-1.934-7.161-11.325z" fill="#6d57e0" data-fill-palette-color="primary"></path><path d="M208.802 258.28l10.152-5.997 1.645 2.784-13.254 7.829-14.337-24.272 3.101-1.832z" fill="#6d57e0" data-fill-palette-color="primary"></path><path d="M240.553 232.132l7.817-8.829 2.421 2.144-10.205 11.525-21.105-18.687 2.387-2.697z" fill="#6d57e0" data-fill-palette-color="primary"></path><path d="M271.022 184.373l-8.767-0.152-4.284 10.943 6.557 5.795-1.356 3.465-22.701-20.269 1.465-3.743 30.443 0.496zM255.409 192.836l3.389-8.654-13.397-0.255z" fill="#6d57e0" data-fill-palette-color="primary"></path><path d="M13.055 143.633c0-1.784 1.446-3.231 3.23-3.231 1.784 0 3.231 1.446 3.231 3.231 0 1.784-1.446 3.231-3.231 3.23-1.784 0-3.231-1.446-3.23-3.23z" fill="#6d57e0" data-fill-palette-color="primary"></path><path d="M263.812 143.633c0-1.784 1.446-3.231 3.231-3.231 1.784 0 3.231 1.446 3.23 3.231 0 1.784-1.446 3.231-3.23 3.23-1.784 0-3.231-1.446-3.231-3.23z" fill="#6d57e0" data-fill-palette-color="primary"></path></g></svg></g></svg></g></svg></g><g></g></svg></g><defs></defs></svg><rect width="280" height="280" fill="none" stroke="none" visibility="hidden"></rect></g></svg></g></svg>